<?xml version="1.0" encoding="utf-8"?>
<!-- Generator: Adobe Illustrator 16.0.0, SVG Export Plug-In . SVG Version: 6.00 Build 0)  -->
<!DOCTYPE svg PUBLIC "-//W3C//DTD SVG 1.1//EN" "http://www.w3.org/Graphics/SVG/1.1/DTD/svg11.dtd">
<svg version="1.1" id="Capa_1" xmlns="http://www.w3.org/2000/svg" xmlns:xlink="http://www.w3.org/1999/xlink" x="0px" y="0px"
	 width="256px" height="256px" viewBox="0 0 256 256" enable-background="new 0 0 256 256" xml:space="preserve">
<g>
	<path fill="#008F83" d="M204.043,255H51.892c-28.085,0-50.931-22.846-50.931-50.924V51.919C0.961,23.851,23.807,1,51.892,1h152.151
		c28.083,0,50.934,22.851,50.934,50.919v152.157C254.977,232.154,232.126,255,204.043,255 M51.892,18.786
		c-18.27,0-33.128,14.859-33.128,33.133v152.157c0,18.274,14.858,33.131,33.128,33.131h152.151c18.27,0,33.146-14.856,33.146-33.131
		V51.919c0-18.274-14.876-33.133-33.146-33.133H51.892z"/>
	<path fill="#008F83" d="M127.959,233.39c-3.589,0-7.19-1.371-9.94-4.104l-17.428-17.457c-2.644-2.646-4.121-6.166-4.121-9.939
		c0-3.76,1.478-7.295,4.121-9.921l17.428-17.467c5.483-5.466,14.415-5.466,19.895,0l17.438,17.467
		c2.646,2.626,4.109,6.161,4.109,9.921c0,3.773-1.464,7.294-4.109,9.939l-17.438,17.457
		C135.181,232.019,131.575,233.39,127.959,233.39 M123.886,223.421c2.252,2.251,5.921,2.251,8.172,0l17.443-17.438
		c1.069-1.099,1.678-2.533,1.678-4.094c0-1.547-0.608-2.991-1.678-4.085l-17.443-17.438c-2.261-2.246-5.911-2.246-8.172,0
		l-17.442,17.438c-1.087,1.094-1.683,2.538-1.683,4.085c0,1.561,0.596,2.995,1.683,4.094L123.886,223.421z"/>
	<path fill="#008F83" d="M98.06,197.521l-2.03-0.155l-24.411-3.521c-7.679-1.118-13.011-8.252-11.899-15.936l3.53-24.421
		c0.532-3.7,2.489-6.987,5.507-9.234c3.013-2.241,6.718-3.214,10.411-2.66l24.427,3.54c3.703,0.53,6.98,2.48,9.241,5.51
		c2.257,2.996,3.202,6.701,2.657,10.406l-3.518,24.427C110.958,192.459,104.918,197.521,98.06,197.521 M67.916,179.101
		c-0.465,3.151,1.743,6.084,4.89,6.536l24.413,3.535c3.132,0.447,6.086-1.736,6.548-4.887l3.531-24.422
		c0.219-1.517-0.173-3.034-1.095-4.274c-0.94-1.244-2.29-2.037-3.8-2.271l-24.414-3.53c-1.5-0.194-3.022,0.17-4.277,1.099
		c-1.249,0.934-2.047,2.276-2.266,3.798L67.916,179.101z"/>
	<path fill="#008F83" d="M237.441,229.928l-2.014-0.151l-24.431-3.525c-7.659-1.108-12.993-8.247-11.895-15.931l3.53-24.421
		c1.119-7.664,8.248-13.022,15.921-11.895l24.421,3.54c3.716,0.53,6.993,2.48,9.25,5.505c2.261,3.005,3.209,6.711,2.664,10.411
		l-3.55,24.421C250.342,224.87,244.317,229.928,237.441,229.928 M207.312,211.512c-0.467,3.142,1.726,6.083,4.877,6.531l24.416,3.54
		c1.522,0.204,3.044-0.161,4.279-1.1c1.25-0.934,2.048-2.266,2.276-3.793l3.53-24.426c0.209-1.508-0.185-3.02-1.1-4.26
		c-0.934-1.245-2.28-2.042-3.793-2.271l-24.426-3.53c-3.137-0.457-6.083,1.736-6.53,4.893L207.312,211.512z"/>
	<path fill="#008F83" d="M189.669,248.999l-2.033-0.146l-24.416-3.54c-3.7-0.53-6.979-2.48-9.244-5.505
		c-2.232-3.015-3.181-6.711-2.65-10.416l3.53-24.421c0.53-3.716,2.495-6.983,5.51-9.24c3.005-2.246,6.716-3.219,10.406-2.659
		l24.431,3.53c7.664,1.113,13.004,8.252,11.899,15.926l-3.535,24.416C202.565,243.946,196.54,248.989,189.669,248.999
		 M168.764,201.212c-1.221,0-2.437,0.409-3.448,1.162c-1.234,0.925-2.042,2.267-2.256,3.793l-3.54,24.402
		c-0.214,1.521,0.17,3.044,1.108,4.284c0.919,1.24,2.257,2.047,3.773,2.271l24.421,3.53c1.518,0.204,3.045-0.175,4.289-1.104
		c1.23-0.929,2.043-2.271,2.257-3.788l3.525-24.421c0.462-3.142-1.722-6.089-4.887-6.536l-24.412-3.535L168.764,201.212z"/>
	<path fill="#008F83" d="M148.627,179.898c-1.897,0-3.794-0.374-5.563-1.147l-22.639-9.818c-7.119-3.088-10.393-11.384-7.309-18.483
		l9.808-22.637c3.083-7.116,11.368-10.387,18.487-7.32l22.637,9.815c7.119,3.083,10.387,11.379,7.313,18.483l-9.818,22.646
		c-1.498,3.442-4.23,6.088-7.731,7.469C152.128,179.567,150.377,179.898,148.627,179.898 M135.832,127.623
		c-2.227,0-4.361,1.294-5.313,3.477l-9.811,22.632c-0.607,1.405-0.637,2.977-0.054,4.421c0.566,1.444,1.658,2.567,3.057,3.18
		l22.639,9.813c1.41,0.612,2.986,0.632,4.411,0.054c1.438-0.56,2.582-1.653,3.18-3.059l9.828-22.637
		c0.593-1.405,0.622-2.972,0.054-4.406c-0.569-1.454-1.658-2.582-3.06-3.185l-22.65-9.82L135.832,127.623z"/>
	<path fill="#008F83" d="M190.753,201.897c-1.892,0-3.788-0.379-5.563-1.162l-22.637-9.803c-3.434-1.493-6.098-4.246-7.479-7.737
		c-1.371-3.506-1.313-7.333,0.176-10.757l9.808-22.631c1.493-3.443,4.227-6.089,7.737-7.479c3.481-1.386,7.313-1.332,10.742,0.165
		l22.655,9.809c3.429,1.488,6.089,4.24,7.46,7.737c1.386,3.501,1.332,7.323-0.155,10.761l-9.813,22.637
		c-1.488,3.434-4.25,6.078-7.747,7.465C194.265,201.563,192.499,201.897,190.753,201.897 M188.478,193.135
		c1.415,0.613,2.971,0.633,4.42,0.063c1.444-0.574,2.567-1.658,3.19-3.068l9.813-22.632c0.598-1.405,0.622-2.966,0.053-4.415
		c-0.568-1.435-1.663-2.567-3.059-3.171l-22.642-9.813c-1.4-0.617-2.98-0.637-4.415-0.067c-1.444,0.563-2.577,1.653-3.19,3.054
		l-9.803,22.642c-0.613,1.42-0.623,2.98-0.063,4.425c0.569,1.439,1.653,2.558,3.063,3.176L188.478,193.135z"/>
	<path fill="#008F83" d="M27.359,208.473c-5.283,0-10.353-2.986-12.743-8.082l-10.516-22.33c-3.288-7.008-0.265-15.396,6.757-18.692
		l22.333-10.504c7.007-3.283,15.403-0.272,18.688,6.739l10.509,22.325c3.29,7.027,0.263,15.42-6.742,18.713L33.319,207.14
		C31.388,208.04,29.356,208.473,27.359,208.473 M39.157,155.817l-2.446,0.545l-22.337,10.494c-2.884,1.361-4.119,4.8-2.755,7.688
		L22.11,196.87c1.352,2.879,4.802,4.113,7.686,2.762l22.328-10.494c2.874-1.352,4.106-4.8,2.767-7.668l-10.501-22.336
		C43.409,157.053,41.333,155.817,39.157,155.817"/>
	<path fill="#008F83" d="M84.578,245.849l-2.894-0.312l-24.151-5.048c-7.578-1.585-12.463-9.055-10.88-16.631l5.045-24.158
		c0.771-3.667,2.928-6.828,6.081-8.88c3.151-2.057,6.9-2.762,10.562-2.008l24.149,5.062c7.596,1.581,12.478,9.035,10.886,16.621
		l-5.051,24.154c-0.771,3.661-2.918,6.822-6.063,8.874C89.937,245.051,87.282,245.849,84.578,245.849 M65.467,196.802
		c-1.111,0-2.196,0.316-3.154,0.943c-1.303,0.851-2.181,2.159-2.504,3.657l-5.043,24.144c-0.659,3.122,1.35,6.181,4.467,6.832
		l24.158,5.048c1.49,0.312,3.034,0.029,4.333-0.827c1.291-0.851,2.181-2.14,2.499-3.642l5.046-24.145
		c0.646-3.121-1.364-6.194-4.467-6.837l-24.156-5.058L65.467,196.802z"/>
	<rect x="100.625" y="16.491" fill="#008F83" width="54.707" height="44.584"/>
	<polygon fill="#008F83" points="179.209,52.505 127.969,106.144 76.729,52.505 	"/>
</g>
</svg>
